{
  "accessors": [
    {
      "bufferView": 2,
      "componentType": 5126,
      "count": 240,
      "max": [
        0.9491370916366577,
        0.9910412430763245,
        0.9892063736915588
      ],
      "min": [
        -0.9491370916366577,
        -0.9910412430763245,
        -0.9892063736915588
      ],
      "type": "VEC3"
    },
    {
      "bufferView": 2,
      "byteOffset": 2880,
      "componentType": 5126,
      "count": 240,
      "max": [
        0.9920774698257446,
        0.9435239434242249,
        0.9435216188430786
      ],
      "min": [
        -0.9920774698257446,
        -0.9435239434242249,
        -0.9435216188430786
      ],
      "type": "VEC3"
    },
    {
      "bufferView": 1,
      "componentType": 5126,
      "count": 240,
      "max": [
        0.9959100484848022,
        0.46765926480293274
      ],
      "min": [
        0.004089926835149527,
        0.004722747020423412
      ],
      "type": "VEC2"
    },
    {
      "bufferView": 0,
      "componentType": 5125,
      "count": 240,
      "type": "SCALAR"
    },
    {
      "bufferView": 2,
      "byteOffset": 5760,
      "componentType": 5126,
      "count": 720,
      "max": [
        0.9491370916366577,
        0.9910412430763245,
        0.9892063736915588
      ],
      "min": [
        -0.9491370916366577,
        -0.9910412430763245,
        -0.9892063736915588
      ],
      "type": "VEC3"
    },
    {
      "bufferView": 2,
      "byteOffset": 14400,
      "componentType": 5126,
      "count": 720,
      "max": [
        0.9995078444480896,
        1.0,
        1.0
      ],
      "min": [
        -0.9995078444480896,
        -1.0,
        -1.0
      ],
      "type": "VEC3"
    },
    {
      "bufferView": 1,
      "byteOffset": 1920,
      "componentType": 5126,
      "count": 720,
      "max": [
        0.9981450438499451,
        0.47238200902938843
      ],
      "min": [
        0.0018549651140347123,
        0.0
      ],
      "type": "VEC2"
    },
    {
      "bufferView": 0,
      "byteOffset": 960,
      "componentType": 5125,
      "count": 1188,
      "type": "SCALAR"
    },
    {
      "bufferView": 2,
      "byteOffset": 23040,
      "componentType": 5126,
      "count": 16384,
      "max": [
        0.9935951828956604,
        0.9666668176651001,
        0.9935951828956604
      ],
      "min": [
        -0.9935951828956604,
        -0.9666668176651001,
        -0.9935952425003052
      ],
      "type": "VEC3"
    },
    {
      "bufferView": 2,
      "byteOffset": 219648,
      "componentType": 5126,
      "count": 16384,
      "max": [
        0.9996978044509888,
        0.6659420728683472,
        0.9996978044509888
      ],
      "min": [
        -0.9996978044509888,
        -0.6659418344497681,
        -0.9996978044509888
      ],
      "type": "VEC3"
    },
    {
      "bufferView": 1,
      "byteOffset": 7680,
      "componentType": 5126,
      "count": 16384,
      "max": [
        1.0000001192092896,
        1.0000001192092896
      ],
      "min": [
        0.0,
        0.5
      ],
      "type": "VEC2"
    },
    {
      "bufferView": 0,
      "byteOffset": 5712,
      "componentType": 5125,
      "count": 24576,
      "type": "SCALAR"
    },
    {
      "bufferView": 2,
      "byteOffset": 416256,
      "componentType": 5126,
      "count": 16384,
      "max": [
        0.9935951828956604,
        0.9666668176651001,
        0.9935951828956604
      ],
      "min": [
        -0.9935951828956604,
        -0.9666668176651001,
        -0.9935952425003052
      ],
      "type": "VEC3"
    },
    {
      "bufferView": 2,
      "byteOffset": 612864,
      "componentType": 5126,
      "count": 16384,
      "max": [
        0.9996978044509888,
        0.6659420728683472,
        0.9996978044509888
      ],
      "min": [
        -0.9996978044509888,
        -0.6659418344497681,
        -0.9996978044509888
      ],
      "type": "VEC3"
    },
    {
      "bufferView": 1,
      "byteOffset": 138752,
      "componentType": 5126,
      "count": 16384,
      "max": [
        1.0000001192092896,
        1.0000001192092896
      ],
      "min": [
        0.0,
        0.5
      ],
      "type": "VEC2"
    },
    {
      "bufferView": 0,
      "byteOffset": 104016,
      "componentType": 5125,
      "count": 24576,
      "type": "SCALAR"
    },
    {
      "bufferView": 2,
      "byteOffset": 809472,
      "componentType": 5126,
      "count": 14336,
      "max": [
        0.9935951828956604,
        0.9596356153488159,
        0.9935951828956604
      ],
      "min": [
        -0.9935951828956604,
        -0.9596356153488159,
        -0.9935952425003052
      ],
      "type": "VEC3"
    },
    {
      "bufferView": 2,
      "byteOffset": 981504,
      "componentType": 5126,
      "count": 14336,
      "max": [
        0.9996978044509888,
        0.8770121932029724,
        0.9996978044509888
      ],
      "min": [
        -0.9996978044509888,
        -0.8770125508308411,
        -0.9996978044509888
      ],
      "type": "VEC3"
    },
    {
      "bufferView": 1,
      "byteOffset": 269824,
      "componentType": 5126,
      "count": 14336,
      "max": [
        1.0000001192092896,
        1.0000001192092896
      ],
      "min": [
        0.0,
        0.5
      ],
      "type": "VEC2"
    },
    {
      "bufferView": 0,
      "byteOffset": 202320,
      "componentType": 5125,
      "count": 21504,
      "type": "SCALAR"
    },
    {
      "bufferView": 3,
      "componentType": 5126,
      "count": 120,
      "max": [
        5.0
      ],
      "min": [
        0.0416666679084301
      ],
      "type": "SCALAR"
    },
    {
      "bufferView": 5,
      "componentType": 5126,
      "count": 120,
      "max": [
        0.0,
        0.0,
        0.9999129176139832,
        1.0
      ],
      "min": [
        0.0,
        0.0,
        -0.9999128580093384,
        0.013201667927205563
      ],
      "type": "VEC4"
    },
    {
      "bufferView": 3,
      "byteOffset": 480,
      "componentType": 5126,
      "count": 50,
      "max": [
        5.0
      ],
      "min": [
        0.0416666679084301
      ],
      "type": "SCALAR"
    },
    {
      "bufferView": 4,
      "componentType": 5126,
      "count": 50,
      "max": [
        1.1405290365219116,
        0.07747280597686768,
        1.140528917312622
      ],
      "min": [
        1.1405287981033325,
        0.07747280597686768,
        1.140528917312622
      ],
      "type": "VEC3"
    },
    {
      "bufferView": 3,
      "byteOffset": 680,
      "componentType": 5126,
      "count": 120,
      "max": [
        5.0
      ],
      "min": [
        0.0416666679084301
      ],
      "type": "SCALAR"
    },
    {
      "bufferView": 5,
      "byteOffset": 1920,
      "componentType": 5126,
      "count": 120,
      "max": [
        0.7070451974868774,
        0.7065524458885193,
        0.009333394467830658,
        0.7071067094802856
      ],
      "min": [
        -0.7065525054931641,
        -0.7070451974868774,
        -0.7071068286895752,
        -0.009333394467830658
      ],
      "type": "VEC4"
    },
    {
      "bufferView": 3,
      "byteOffset": 1160,
      "componentType": 5126,
      "count": 71,
      "max": [
        5.0
      ],
      "min": [
        0.0416666679084301
      ],
      "type": "SCALAR"
    },
    {
      "bufferView": 4,
      "byteOffset": 600,
      "componentType": 5126,
      "count": 71,
      "max": [
        1.2437547445297241,
        0.07747280597686768,
        1.2437548637390137
      ],
      "min": [
        1.2437547445297241,
        0.07747280597686768,
        1.2437546253204346
      ],
      "type": "VEC3"
    },
    {
      "bufferView": 3,
      "byteOffset": 1444,
      "componentType": 5126,
      "count": 120,
      "max": [
        5.0
      ],
      "min": [
        0.0416666679084301
      ],
      "type": "SCALAR"
    },
    {
      "bufferView": 5,
      "byteOffset": 3840,
      "componentType": 5126,
      "count": 120,
      "max": [
        1.0,
        0.0,
        -0.0,
        1.0
      ],
      "min": [
        -0.998629629611969,
        0.0,
        -0.0,
        -4.371138828673793e-08
      ],
      "type": "VEC4"
    },
    {
      "bufferView": 3,
      "byteOffset": 1924,
      "componentType": 5126,
      "count": 70,
      "max": [
        5.0
      ],
      "min": [
        0.0416666679084301
      ],
      "type": "SCALAR"
    },
    {
      "bufferView": 4,
      "byteOffset": 1452,
      "componentType": 5126,
      "count": 70,
      "max": [
        1.468157410621643,
        0.08411363512277603,
        1.4681576490402222
      ],
      "min": [
        1.468157410621643,
        0.08411363512277603,
        1.468157410621643
      ],
      "type": "VEC3"
    }
  ],
  "animations": [
    {
      "channels": [
        {
          "sampler": 0,
          "target": {
            "node": 6,
            "path": "rotation"
          }
        },
        {
          "sampler": 1,
          "target": {
            "node": 6,
            "path": "scale"
          }
        },
        {
          "sampler": 2,
          "target": {
            "node": 8,
            "path": "rotation"
          }
        },
        {
          "sampler": 3,
          "target": {
            "node": 8,
            "path": "scale"
          }
        },
        {
          "sampler": 4,
          "target": {
            "node": 10,
            "path": "rotation"
          }
        },
        {
          "sampler": 5,
          "target": {
            "node": 10,
            "path": "scale"
          }
        }
      ],
      "name": "Animation",
      "samplers": [
        {
          "input": 20,
          "interpolation": "LINEAR",
          "output": 21
        },
        {
          "input": 22,
          "interpolation": "LINEAR",
          "output": 23
        },
        {
          "input": 24,
          "interpolation": "LINEAR",
          "output": 25
        },
        {
          "input": 26,
          "interpolation": "LINEAR",
          "output": 27
        },
        {
          "input": 28,
          "interpolation": "LINEAR",
          "output": 29
        },
        {
          "input": 30,
          "interpolation": "LINEAR",
          "output": 31
        }
      ]
    }
  ],
  "asset": {
    "extras": {
      "author": "Bartosz2005T (https://sketchfab.com/Bartosz2005T)",
      "license": "CC-BY-4.0 (http://creativecommons.org/licenses/by/4.0/)",
      "source": "https://sketchfab.com/3d-models/unknown-object-in-space-dd2b505ec642481fac1b4c9b17362c1f",
      "title": "Unknown Object in Space"
    },
    "generator": "Sketchfab-12.64.0",
    "version": "2.0"
  },
  "bufferViews": [
    {
      "buffer": 0,
      "byteLength": 288336,
      "name": "floatBufferViews",
      "target": 34963
    },
    {
      "buffer": 0,
      "byteLength": 384512,
      "byteOffset": 288336,
      "byteStride": 8,
      "name": "floatBufferViews",
      "target": 34962
    },
    {
      "buffer": 0,
      "byteLength": 1153536,
      "byteOffset": 672848,
      "byteStride": 12,
      "name": "floatBufferViews",
      "target": 34962
    },
    {
      "buffer": 0,
      "byteLength": 2204,
      "byteOffset": 1826384,
      "name": "floatBufferViews"
    },
    {
      "buffer": 0,
      "byteLength": 2292,
      "byteOffset": 1828588,
      "byteStride": 12,
      "name": "floatBufferViews"
    },
    {
      "buffer": 0,
      "byteLength": 5760,
      "byteOffset": 1830880,
      "byteStride": 16,
      "name": "floatBufferViews"
    }
  ],
  "buffers": [
    {
      "byteLength": 1836640,
      "uri": "scene.bin"
    }
  ],
  "materials": [
    {
      "doubleSided": true,
      "name": "Material.001",
      "pbrMetallicRoughness": {
        "baseColorFactor": [
          0.110689,
          0.110689,
          0.110689,
          1.0
        ],
        "metallicFactor": 0.7740066999422924
      }
    },
    {
      "doubleSided": true,
      "emissiveFactor": [
        0.00718206,
        0.971278,
        1.0
      ],
      "name": "Material.002",
      "pbrMetallicRoughness": {
        "roughnessFactor": 0.9503263614085424
      }
    }
  ],
  "meshes": [
    {
      "name": "Object_0",
      "primitives": [
        {
          "attributes": {
            "NORMAL": 1,
            "POSITION": 0,
            "TEXCOORD_0": 2
          },
          "indices": 3,
          "material": 0,
          "mode": 4
        }
      ]
    },
    {
      "name": "Object_1",
      "primitives": [
        {
          "attributes": {
            "NORMAL": 5,
            "POSITION": 4,
            "TEXCOORD_0": 6
          },
          "indices": 7,
          "material": 1,
          "mode": 4
        }
      ]
    },
    {
      "name": "Object_2",
      "primitives": [
        {
          "attributes": {
            "NORMAL": 9,
            "POSITION": 8,
            "TEXCOORD_0": 10
          },
          "indices": 11,
          "material": 0,
          "mode": 4
        }
      ]
    },
    {
      "name": "Object_3",
      "primitives": [
        {
          "attributes": {
            "NORMAL": 13,
            "POSITION": 12,
            "TEXCOORD_0": 14
          },
          "indices": 15,
          "material": 0,
          "mode": 4
        }
      ]
    },
    {
      "name": "Object_4",
      "primitives": [
        {
          "attributes": {
            "NORMAL": 17,
            "POSITION": 16,
            "TEXCOORD_0": 18
          },
          "indices": 19,
          "material": 0,
          "mode": 4
        }
      ]
    }
  ],
  "nodes": [
    {
      "children": [
        1
      ],
      "matrix": [
        1.0,
        0.0,
        0.0,
        0.0,
        0.0,
        2.220446049250313e-16,
        -1.0,
        0.0,
        0.0,
        1.0,
        2.220446049250313e-16,
        0.0,
        0.0,
        0.0,
        0.0,
        1.0
      ],
      "name": "Sketchfab_model"
    },
    {
      "children": [
        2
      ],
      "name": "root"
    },
    {
      "children": [
        3,
        6,
        8,
        10
      ],
      "matrix": [
        1.0,
        0.0,
        0.0,
        0.0,
        0.0,
        2.220446049250313e-16,
        1.0,
        0.0,
        0.0,
        -1.0,
        2.220446049250313e-16,
        0.0,
        0.0,
        0.0,
        0.0,
        1.0
      ],
      "name": "GLTF_SceneRootNode"
    },
    {
      "children": [
        4,
        5
      ],
      "name": "Icosphere_0"
    },
    {
      "mesh": 0,
      "name": "Object_4"
    },
    {
      "mesh": 1,
      "name": "Object_5"
    },
    {
      "children": [
        7
      ],
      "name": "Cylinder_1",
      "scale": [
        1.140528917312622,
        0.07747280597686768,
        1.140528917312622
      ]
    },
    {
      "mesh": 2,
      "name": "Object_7"
    },
    {
      "children": [
        9
      ],
      "name": "Cylinder.001_2",
      "rotation": [
        0.0,
        0.0,
        -0.7071067690849304,
        0.7071068286895752
      ],
      "scale": [
        1.2437547445297241,
        0.07747280597686768,
        1.2437547445297241
      ]
    },
    {
      "mesh": 3,
      "name": "Object_9"
    },
    {
      "children": [
        11
      ],
      "name": "Cylinder.002_3",
      "rotation": [
        0.0523359589278698,
        0.0,
        0.0,
        0.9986295104026794
      ],
      "scale": [
        1.468157410621643,
        0.08411363512277603,
        1.4681575298309326
      ]
    },
    {
      "mesh": 4,
      "name": "Object_11"
    }
  ],
  "scene": 0,
  "scenes": [
    {
      "name": "Sketchfab_Scene",
      "nodes": [
        0
      ]
    }
  ]
}
